# xmcd
#
# Track frame offsets: 
#        150
#        34067
#        72255
#        111596
#        137630
#        176382
#        208472
#        246833
#        281625
#        314165
#
# Disc length: 4746 seconds
#
# Revision: 4
# Processed by: cddbd v1.5.2PL0 Copyright (c) Steve Scherf et al.
# Submitted via: ExactAudioCopy v0.95a5
#
DISCID=a212880a
DTITLE=Various Artist - Gary D. Presents D.Trance 31 [CD1]
DYEAR=2005
DGENRE=Trance
TTITLE0=Sun:Port - Angels Fall First (Original Mix)
TTITLE1=Armin van Buuren - Serenity (Sensation White Theme 2005)
TTITLE2=Ron van den Beuken - Sunset (Ron van den Beuken Mix) 
TTITLE3=CJ Stone feat. Rename - Call My Name (Heart Of Stone Mix)
TTITLE4=Clear and Present - Elevate (John O'Callaghan Remix) 
TTITLE5=Alphazone - Sunrise (Original Club Dub) 
TTITLE6=Beam and Sean Tyas pres. 64 Bit - Virtual Discotech 1.0 (Cosmic 
TTITLE6=Gate Remix)
TTITLE7=Ohm Boys - Down Under (Atlantis) (Stoneface and Terminal Rmx) 
TTITLE8=K90 - Energize 
TTITLE9=Firewall - Sincere 2005 (Pulser Remix) 
EXTD=YEAR: 2005
EXTT0=
EXTT1=
EXTT2=
EXTT3=
EXTT4=
EXTT5=
EXTT6=
EXTT7=
EXTT8=
EXTT9=
PLAYORDER=
